<svg xmlns="http://www.w3.org/2000/svg" version="1.1" xmlns:xlink="http://www.w3.org/1999/xlink" xmlns:svgjs="http://svgjs.dev/svgjs" viewBox="0 0 600 600" opacity="1"><path d="M78.1468505859375,231.81817626953125C83.39160664876302,234.09090423583984,66.60839335123698,219.7552490234375,89.68531799316406,234.9650421142578C112.76224263509114,250.17483520507812,188.98602040608725,301.22378794352215,216.6083984375,323.0769348144531C244.23077646891275,344.9300816853841,246.50350443522134,347.37762959798175,255.41958618164062,366.08392333984375C264.3356679280599,384.79021708170575,253.3216756184896,423.6014099121094,270.1048889160156,435.314697265625C286.8881022135417,447.0279846191406,341.783203125,446.5035095214844,356.1188659667969,436.3636474609375C370.45452880859375,426.2237854003906,353.3216603597005,392.4825185139974,356.1188659667969,374.47552490234375C358.91607157389325,356.4685312906901,364.1608378092448,339.8601481119792,372.902099609375,328.3216857910156C381.6433614095052,316.78322347005206,395.62937418619794,311.1888071695964,408.5664367675781,305.2447509765625C421.5034993489583,299.3006947835286,440.3846130371094,299.1258799235026,450.52447509765625,292.6573486328125C460.6643371582031,286.1888173421224,466.7832336425781,277.27272542317706,469.4056091308594,266.4335632324219C472.0279846191406,255.59440104166666,477.09789021809894,244.05594126383463,466.25872802734375,227.62237548828125C455.41956583658856,211.18880971272787,418.3566487630208,177.4475529988607,404.3706359863281,167.83216857910156C390.38462320963544,158.21678415934244,386.01398213704425,165.73426564534506,382.3426513671875,169.93006896972656C378.67132059733075,174.12587229410806,378.8461456298828,185.6643320719401,382.3426513671875,193.00698852539062C385.8391571044922,200.34964497884116,397.2028045654297,206.1188735961914,403.3216857910156,213.9860076904297C409.44056701660156,221.85314178466797,417.3076883951823,231.81818389892578,419.0559387207031,240.2097930908203C420.80418904622394,248.60140228271484,419.23076883951825,263.2867126464844,413.8111877441406,264.3356628417969C408.391606648763,265.3846130371094,395.6293589274089,251.9230753580729,386.5384521484375,246.5034942626953C377.4475453694661,241.08391316731772,369.0559539794922,236.18880462646484,359.2657470703125,231.81817626953125C349.4755401611328,227.44754791259766,337.7622477213542,222.37762451171875,327.7972106933594,220.27972412109375C317.83217366536456,218.18182373046875,307.5174865722656,217.13287353515625,299.47552490234375,219.23077392578125C291.4335632324219,221.32867431640625,284.61537170410156,226.22377014160156,279.5454406738281,232.86712646484375C274.4755096435547,239.51048278808594,275.34964243570965,254.02098083496094,269.0559387207031,259.0909118652344C262.7622350056966,264.1608428955078,252.97202809651694,262.58741251627606,241.78321838378906,263.2867126464844C230.5944086710612,263.9860127766927,211.0139897664388,263.63636271158856,201.92308044433594,263.2867126464844C192.83217112223306,262.9370625813802,191.95804341634116,263.46154022216797,187.23776245117188,261.1888122558594C182.5174814860026,258.9160842895508,177.27272288004556,255.2447509765625,173.6013946533203,249.6503448486328C169.93006642659506,244.05593872070312,172.37762451171875,234.26573181152344,165.2097930908203,227.62237548828125C158.04196166992188,220.97901916503906,141.95804341634116,213.28671010335287,130.5944061279297,209.7902069091797C119.23076883951823,206.2937037150065,106.4685287475586,207.16783142089844,97.02796936035156,206.6433563232422C87.58740997314453,206.11888122558594,80.41958109537761,204.1958033243815,73.9510498046875,206.6433563232422C67.48251851399739,209.09090932210287,57.5174814860026,217.13287099202475,58.21678161621094,221.32867431640625C58.91608174641927,225.52447764078775,72.90209452311198,229.54544830322266,78.1468505859375,231.81817626953125C83.39160664876302,234.09090423583984,66.60839335123698,219.7552490234375,89.68531799316406,234.9650421142578" fill="hsl(0, 0%, 0%)" stroke-width="0" stroke="hsl(340, 45%, 30%)" transform="matrix(1,0,0,1,0,0)"></path></svg>