<svg width="420.40000000000003" height="290.7" xmlns="http://www.w3.org/2000/svg">

 <g>
  <title>Layer 1</title>
  <path transform="rotate(-0.00163305 210.153 145.565)" stroke="#000" id="svg_1" fill="none" stroke-width="10" d="m20.40711,74.43685c5.23555,2.25535 3.86335,1.37423 10.28712,4.6927c24.26778,13.52376 100.35859,64.18302 127.9328,85.86928c27.57421,21.68636 29.84294,24.11517 38.74348,42.67866c8.90054,18.56348 -2.09424,57.07837 14.65968,68.70225c16.75392,11.62387 67.2875,10.04105 74.38709,2.59037c18.5386,-19.60517 8.68452,-45.09556 11.47684,-62.96509c2.79232,-17.86952 8.02787,-34.35112 16.75392,-45.80143c8.72605,-11.45041 22.68765,-17.0021 35.60207,-22.90072c12.91453,-5.89872 31.76269,-6.07218 41.88489,-12.4914c10.12211,-6.41912 16.23033,-15.26714 18.84816,-26.02349c2.61782,-10.75645 7.67888,-22.20685 -3.14141,-38.51489c-10.82019,-16.30814 -47.81852,-49.79173 -61.78012,-59.33372c-13.9616,-9.54199 -18.32457,-2.08188 -21.98947,2.08188c-3.66499,4.16377 -3.4905,15.61408 0,22.90072c3.4904,7.28654 14.83417,13.0118 20.9424,20.81883c6.10822,7.80704 13.9616,17.69606 15.70675,26.02359c1.74525,8.32753 0.17459,22.90072 -5.23555,23.94171c-5.41014,1.04089 -18.15008,-12.31783 -27.22512,-17.69606c-9.07514,-5.37822 -17.452,-10.23595 -27.22522,-14.57318c-9.77312,-4.33733 -21.46598,-9.36852 -31.4136,-11.45041c-9.94761,-2.08188 -20.24432,-3.12278 -28.27229,-1.04089c-8.02787,2.08188 -14.83417,6.93961 -19.89533,13.53219c-5.06105,6.59268 -4.18848,20.9924 -10.4712,26.02359c-6.28272,5.03119 -16.05584,3.46981 -27.22512,4.16377c-11.16928,0.69396 -30.71552,0.34703 -39.79055,0c-9.07504,-0.34693 -9.94771,0.17347 -14.65968,-2.08188c-4.71206,-2.25535 -9.94771,-5.89862 -13.61261,-11.45041c-3.66489,-5.55169 -1.22166,-15.26714 -8.37696,-21.85972c-7.15529,-6.59268 -23.21123,-14.22625 -34.555,-17.69606c-11.34377,-3.46981 -24.08381,-2.60238 -33.50784,-3.12278c-9.42413,-0.5205 -16.57942,-2.42891 -23.03674,0c-6.45721,2.42881 -10.38984,4.46922 -10.38984,8.99341c0.95833,7.38121 8.86251,12.38075 14.45374,15.74487c5.36023,2.49967 1.01523,0.45847 10.17222,4.69885l45.81992,27.79516"/>
  <path id="svg_10" d="m64.48573,220.70715" opacity="NaN" stroke-width="20" stroke="#000000" fill="#000"/>
 </g>
</svg>